<?xml version="1.0" encoding="UTF-8" standalone="no"?>
<svg
   width="512"
   height="512"
   viewBox="0 0 512 512"
   fill="none"
   version="1.1"
   id="svg10"
   sodipodi:docname="ArcPaletteLogo.svg"
   inkscape:export-filename="..\..\..\..\..\Downloads\sizes\80xArcPaletteLogo.png"
   inkscape:export-xdpi="15"
   inkscape:export-ydpi="15"
   inkscape:version="1.3.2 (091e20e, 2023-11-25, custom)"
   xmlns:inkscape="http://www.inkscape.org/namespaces/inkscape"
   xmlns:sodipodi="http://sodipodi.sourceforge.net/DTD/sodipodi-0.dtd"
   xmlns="http://www.w3.org/2000/svg"
   xmlns:svg="http://www.w3.org/2000/svg">
  <defs
     id="defs10" />
  <sodipodi:namedview
     id="namedview10"
     pagecolor="#ffffff"
     bordercolor="#000000"
     borderopacity="0.25"
     inkscape:showpageshadow="2"
     inkscape:pageopacity="0.0"
     inkscape:pagecheckerboard="0"
     inkscape:deskcolor="#d1d1d1"
     inkscape:zoom="2.3847656"
     inkscape:cx="255.79034"
     inkscape:cy="256"
     inkscape:window-width="1350"
     inkscape:window-height="1237"
     inkscape:window-x="1067"
     inkscape:window-y="73"
     inkscape:window-maximized="0"
     inkscape:current-layer="svg10" />
  <path
     d="M342.719 206.646L335.642 160.183C333.614 146.934 327.979 134.546 319.388 124.455C310.798 114.365 299.604 106.984 287.104 103.169C274.604 99.3538 261.309 99.2599 248.759 102.898C236.209 106.536 224.917 113.758 216.193 123.726L172.558 173.618C164.619 164.738 154.608 158.089 143.474 154.299C132.34 150.509 120.45 149.704 108.929 151.959C72.3907 158.983 49.4239 195.604 53.3316 230.883C55.5325 251.155 61.5686 271.244 70.6392 290.213L59.1503 303.355C51.7541 311.803 46.4423 321.958 43.6631 332.961C40.8839 343.965 40.719 355.495 43.1823 366.578C45.8238 378.706 51.5591 389.891 59.7981 398.982C69.9014 410.244 83.2806 417.834 97.9303 420.614L98.1387 420.646L98.3241 420.682C110.054 422.751 122.103 421.702 133.328 417.632C144.552 413.563 154.579 406.61 162.455 397.432L168.198 390.866C177.805 395.714 187.781 399.76 198.053 402.957L198.332 403.044C210.028 406.565 222.011 408.983 234.133 410.269L235.74 420.806L235.748 420.853C237.794 434.075 243.425 446.434 251.994 456.511C260.563 466.587 271.723 473.972 284.19 477.815L284.339 477.862C299.322 482.402 315.357 481.585 329.83 475.544C344.303 469.503 356.359 458.595 364.03 444.599L364.156 444.359L364.279 444.129C371.723 430.014 374.357 413.742 371.762 397.907L368.903 378.896C402.889 358.282 432.209 328.399 451.32 291.114C455.571 282.851 458.185 273.802 459.011 264.492C459.836 255.182 458.857 245.797 456.13 236.879C452.756 225.754 446.774 215.654 438.712 207.468C430.649 199.282 420.754 193.262 409.896 189.936L409.757 189.893C398.133 186.393 385.819 186.099 374.051 189.041C362.282 191.983 351.472 198.057 342.706 206.654L342.719 206.646ZM373.118 224.568C381.602 219.941 391.507 218.906 400.723 221.683C406.523 223.461 411.808 226.679 416.113 231.055C420.418 235.431 423.61 240.829 425.406 246.774C427.889 254.858 427.636 263.568 424.687 271.485L373.121 224.558L373.118 224.568Z"
     fill="#FFFCEA"
     id="path1" />
  <path
     d="M162.318 234.943L136.786 264.179L110.124 294.685C114.639 301.756 119.595 308.518 124.96 314.93C135.759 327.794 148.136 339.161 161.781 348.746L187.529 319.298L211.722 291.602C189.719 279.157 170.526 257.183 162.318 234.943Z"
     fill="#210784"
     id="path2" />
  <path
     d="M333.447 360.506L321.385 281.216C311.55 288.031 300.816 293.359 289.51 297.037C276.83 301.266 263.515 303.118 250.199 302.505L261.779 378.101C278.643 377.414 295.34 374.398 311.423 369.135C318.927 366.718 326.281 363.836 333.447 360.506Z"
     fill="#26069C"
     id="path3" />
  <path
     d="M124.909 314.881C119.54 308.473 114.584 301.71 110.073 294.636L83.0935 325.513C79.1426 330.021 76.3067 335.442 74.826 341.317C73.3454 347.193 73.2638 353.348 74.5881 359.263C75.9774 365.696 79.0259 371.642 83.4075 376.439C88.7947 382.471 95.9404 386.545 103.771 388.021C110.109 389.139 116.62 388.567 122.682 386.359C128.744 384.15 134.155 380.38 138.396 375.408L161.727 348.708C148.083 339.119 135.707 327.748 124.909 314.881Z"
     fill="#2404AA"
     id="path4" />
  <path
     d="M339.978 403.233L333.532 360.476L321.467 281.197L303.827 165.32C302.751 158.252 299.749 151.642 295.169 146.258C290.589 140.875 284.619 136.937 277.951 134.902C271.284 132.867 264.192 132.819 257.499 134.762C250.806 136.706 244.785 140.562 240.136 145.883L162.294 234.88C170.491 257.117 189.72 279.191 211.693 291.516L237.034 262.522C237.577 261.902 238.28 261.452 239.061 261.226C239.841 261 240.669 261.006 241.447 261.243C242.224 261.481 242.921 261.94 243.455 262.568C243.989 263.196 244.34 263.967 244.466 264.792L250.269 302.527L261.849 378.123L267.551 415.647C268.644 422.713 271.652 429.318 276.231 434.703C280.809 440.088 286.772 444.035 293.433 446.09C301.431 448.516 309.992 448.081 317.718 444.855C325.444 441.63 331.879 435.806 335.972 428.334C340.015 420.669 341.427 411.825 339.978 403.233Z"
     fill="#FF5060"
     id="path5" />
  <path
     d="M250.242 302.507C242.789 302.135 235.406 300.852 228.248 298.684C222.514 296.888 216.978 294.478 211.732 291.494C189.777 279.109 170.577 257.122 162.387 234.898C160.407 229.682 159.077 224.229 158.429 218.669C158.028 213.368 156.545 208.215 154.074 203.545C151.604 198.875 148.203 194.795 144.094 191.57C139.985 188.346 135.26 186.051 130.229 184.835C125.198 183.618 119.974 183.509 114.899 184.513C96.239 188.059 83.1589 207.728 85.3361 227.163C87.7902 249.846 96.4226 273.15 110.157 294.685C114.676 301.766 119.627 308.535 125.003 314.933C135.8 327.801 148.176 339.171 161.821 348.76C175.801 358.615 191.163 366.203 207.379 371.247C225.021 376.558 243.387 378.866 261.752 378.082L250.242 302.507Z"
     fill="#0034FE"
     id="path6" />
  <rect
     x="12.1611"
     y="7.01982"
     width="41.2443"
     height="189.211"
     rx="20.6221"
     transform="matrix(0.964048 -0.265729 0.252064 0.967711 378.504 164.164)"
     fill="#FF9999"
     stroke="#FFFCEA"
     stroke-width="20"
     id="rect6" />
  <rect
     x="12.1611"
     y="7.01982"
     width="41.2443"
     height="63.6844"
     rx="20.6221"
     transform="matrix(0.964048 -0.265729 0.252064 0.967711 420.691 326.128)"
     fill="#FF9999"
     stroke="#FFFCEA"
     stroke-width="20"
     id="rect7" />
  <rect
     x="12.1611"
     y="7.01982"
     width="41.2443"
     height="63.6844"
     rx="20.6221"
     transform="matrix(0.964048 -0.265729 0.252064 0.967711 420.691 326.128)"
     fill="#FF9999"
     stroke="#FFFCEA"
     stroke-width="20"
     id="rect8" />
  <rect
     x="12.1611"
     y="7.01982"
     width="39.5813"
     height="181.588"
     rx="19.7906"
     transform="matrix(0.964048 -0.265729 0.252064 0.967711 373.23 143.919)"
     fill="#FF9999"
     stroke="#FFFCEA"
     stroke-width="20"
     id="rect9" />
  <path
     d="M420.621 73.5168C423.944 86.2755 423.86 97.5115 420.764 105.853C417.861 113.678 412.065 119.751 401.563 122.646C379.936 128.607 357.287 115.447 351.339 92.6137C349.167 84.276 344.838 75.8659 340.581 68.3884C338.617 64.9384 336.753 61.8175 334.985 58.8588C332.593 54.8556 330.379 51.1495 328.336 47.3272C324.793 40.6995 323.595 36.8324 323.598 34.9215C323.934 34.7255 324.593 34.4108 325.761 34.0887C330.46 32.7937 338.386 32.7389 348.633 34.4751C358.603 36.1646 369.769 39.3751 380.409 43.6667C391.081 47.9711 400.863 53.2171 408.238 58.8029C415.903 64.6085 419.648 69.7811 420.621 73.5168Z"
     fill="#FF9999"
     stroke="#FFFCEA"
     stroke-width="20"
     id="path9" />
  <path
     d="M425.406 246.774C423.61 240.828 420.419 235.43 416.114 231.054C411.809 226.678 406.523 223.46 400.722 221.683C392.559 219.224 383.82 219.746 375.988 223.16C368.156 226.574 361.713 232.67 357.753 240.414C349.086 256.883 336.612 270.904 321.431 281.242L333.497 360.521C370.919 343.116 403.355 313.675 422.843 275.635C425.109 271.239 426.503 266.424 426.943 261.469C427.383 256.514 426.861 251.519 425.406 246.774Z"
     fill="#FF9999"
     id="path10" />
</svg>
